<svg width="113" height="85" viewBox="0 0 113 85" fill="none" xmlns="http://www.w3.org/2000/svg">
<path d="M20.5031 59.4002C25.7454 59.4002 28.1918 62.7292 28.1918 65.8959V72.9019H24.8717V65.8959C24.8717 63.9008 23.7067 60.6646 20.5031 60.6646C17.2995 60.6646 16.1229 63.8892 16.1229 65.8959V72.9019H12.8145V65.8959C12.8145 62.7061 15.2492 59.4002 20.5031 59.4002Z" fill="#FBFADA"/>
<path d="M66.1691 73.1455C60.9152 73.1455 58.4805 69.8165 58.4805 66.6382V59.6206H61.7889V66.6382C61.7889 68.6333 62.9539 71.8695 66.1691 71.8695C69.3844 71.8695 70.5377 68.6449 70.5377 66.6382V59.6206H73.8578V66.6382C73.8578 69.8281 71.423 73.1455 66.1691 73.1455Z" fill="#FBFADA"/>
<path d="M41.5887 71.9623C40.8082 72.5655 39.8879 72.9599 38.9093 73.0991C35.5659 73.621 30.8828 71.4288 30.6964 66.5686C30.5217 61.5925 35.4378 59.493 38.653 59.5742C44.0817 59.725 46.0155 63.7964 46.0155 66.1163V72.9135H42.6721V66.1511C42.6721 64.6779 42.0081 60.885 38.5598 60.8154C35.1232 60.7458 34.1214 63.8312 34.1097 66.1511C34.1097 67.6242 34.4243 71.2664 38.2919 71.4868C39.4801 71.5563 41.1577 71.2316 41.6003 70.8256L41.5887 71.9623Z" fill="#FBFADA"/>
<path d="M56.4418 74.9086C55.4516 75.2218 54.3915 75.245 53.3896 74.9782C51.8403 74.5722 49.2424 73.8762 49.2424 68.5289V53.7746H52.5858V59.6438H55.6729V61.7085H52.5858C52.5858 61.7085 52.6674 65.8611 52.5858 69.2133C52.5159 72.2059 53.4362 73.2151 54.0886 73.5631C54.8225 73.8646 55.638 73.911 56.4069 73.7138L56.4418 74.9086Z" fill="#FBFADA"/>
<path d="M76.9914 65.4667C76.9914 62.1841 78.7039 59.8642 81.6745 59.5626C83.7947 59.3538 84.5519 59.7366 84.5519 59.7366V61.0705C83.783 60.8849 82.9792 60.9081 82.222 61.1285C80.8823 61.5461 80.3231 63.5992 80.3231 64.2952V72.9599H76.9797L76.9914 65.4667Z" fill="#FBFADA"/>
<path d="M95.7704 71.9623C94.9899 72.5655 94.0696 72.9599 93.0911 73.0991C89.7477 73.621 85.0646 71.4288 84.8898 66.5686C84.6918 61.5809 89.6195 59.493 92.8231 59.5858C98.2401 59.7366 100.186 63.7964 100.186 66.1163V72.9019H96.8422V66.1395C96.8422 64.6664 96.1665 60.8734 92.7299 60.8038C89.2933 60.7342 88.2915 63.8196 88.2915 66.1395C88.2915 67.6126 88.6177 71.2548 92.4736 71.4752C93.6619 71.5448 95.3511 71.22 95.7821 70.814L95.7704 71.9623Z" fill="#FBFADA"/>
<path d="M54.5079 15.4967C53.2382 17.9442 51.747 23.1987 51.747 23.1987C51.747 23.1987 51.6189 23.5931 51.3393 23.1407C51.1645 22.8507 49.0443 19.9741 47.9959 18.6865C46.7727 17.2018 41.3324 11.4949 35.0883 14.7312C29.4616 17.6658 31.6167 24.7994 33.3525 27.4904C34.4009 29.1144 36.4279 31.6662 36.9988 32.3738C37.1036 32.5014 37.0687 32.5478 36.9056 32.5014C36.4279 32.3738 35.1698 32.0374 32.8865 31.4574C30.8245 30.9355 28.8325 31.005 28.2384 31.8982C27.819 32.571 27.5627 33.5337 28.3898 35.0532C30.044 38.0227 34.599 42.732 42.0663 44.2747C42.2177 44.2747 42.1944 44.4255 42.0663 44.6459C41.6935 45.249 41.7401 46.0146 42.1711 46.5598C43.2895 47.8937 44.5243 48.3809 49.4754 49.2276C56.3719 50.4108 58.795 48.0793 59.0745 47.7777C59.0978 47.7661 59.1328 47.7661 59.1561 47.7777C62.7208 48.6129 66.472 48.2649 69.827 46.7918C74.6266 44.7967 76.4556 42.9176 76.5255 41.7924C76.5954 40.6673 74.0441 40.8877 73.3102 40.7021C73.0772 40.6441 73.1471 40.5397 73.3102 40.4585C73.6481 40.2497 74.4985 39.9017 75.1741 39.5422C75.8498 39.1826 82.8861 35.668 84.2724 29.7175C85.6587 23.7671 80.2533 23.7091 77.3409 24.9618C74.4286 26.2029 71.6909 27.56 71.0735 27.85C70.9687 27.8964 70.9454 27.85 70.992 27.7572C71.7608 25.8897 72.3899 23.9642 72.8675 21.9924C73.4733 19.1621 73.1937 11.4369 65.5051 9.99863C64.9459 9.89424 64.3867 9.84784 63.8159 9.84784C59.9017 9.85944 56.3136 12.0401 54.5079 15.4967ZM54.8108 27.6296C55.4166 25.9361 55.6263 25.0546 56.6282 21.7836C57.8746 17.7006 60.5773 14.4992 64.9342 15.7867C70.0367 17.341 68.8485 22.4563 68.0214 24.5674C67.3457 26.2493 66.8331 27.966 65.738 30.7499C64.8643 33.0117 66.7399 33.0697 67.7418 32.8493C68.8834 32.5942 72.2035 30.8891 74.2888 29.9147C75.8382 29.2071 78.6923 27.4904 80.3116 29.1607C81.9308 30.8311 80.1135 33.7193 78.1681 35.4476C76.2226 37.1759 71.0619 39.3334 69.4659 39.9713C67.8699 40.6093 67.2758 41.5141 68.0563 42.0012C68.8368 42.4884 71.1201 42.8828 71.8074 42.9756C72.3783 43.0452 72.9374 43.1844 72.9374 43.5787C72.9374 44.0775 71.5977 45.0867 68.4524 46.1422C66.3322 46.8034 64.1071 47.0237 61.9054 46.815C59.1561 46.3046 58.7251 45.8638 57.4436 46.351C56.4884 46.7338 56.4068 47.4877 55.0322 48.0329C53.6575 48.5781 51.6072 48.4621 50.0345 48.1953C48.4619 47.9285 45.7359 47.6733 45.4563 46.4322C45.3398 45.9334 45.8873 45.6202 46.3417 45.0983C46.796 44.5763 47.1921 43.6367 45.2233 43.2192C44.6991 43.1148 39.2355 42.2448 35.8571 40.5513C32.4788 38.8578 31.174 36.1668 31.5002 35.2156C31.7915 34.4501 32.5603 34.3805 33.5971 34.5544C34.797 34.7864 40.0276 36.2016 41.6236 36.2248C42.2876 36.2248 42.7769 36.0972 43.0099 35.7028C43.6273 34.624 41.7285 33.3249 40.1558 31.4342C37.8958 28.7664 33.5855 24.289 36.8124 20.2872C38.9559 17.6194 43.1963 19.3709 44.9554 21.4008C46.2951 22.9667 48.6483 26.1565 50.4539 28.314C50.9665 29.0332 51.782 29.4971 52.6673 29.5667C53.576 29.5667 54.3915 28.9056 54.8574 27.5716" fill="#FBFADA"/>
</svg>
